<?xml version="1.0" encoding="iso-8859-1"?>
<!-- Generator: Adobe Illustrator 19.0.0, SVG Export Plug-In . SVG Version: 6.00 Build 0)  -->
<svg version="1.1" id="Layer_1" xmlns="http://www.w3.org/2000/svg" xmlns:xlink="http://www.w3.org/1999/xlink" x="0px" y="0px"
	 viewBox="0 0 512 512" style="enable-background:new 0 0 512 512;" xml:space="preserve">
<path style="fill:#F0AE59;" d="M315.748,422.53c2.301-35.477-28.924-64.475-64.476-64.475h-10.001
	c-12.1,0-21.943-9.844-21.943-21.943s9.843-21.943,21.943-21.943h42.356c27.08,0,49.11-22.031,49.11-49.11
	s-22.031-49.11-49.11-49.11H181.01c-6.151,0-11.156-5.005-11.156-11.156c0-6.59,5.361-11.952,11.95-11.952h17.322
	c6.925,0,12.539-5.614,12.539-12.539c0-6.925-5.614-12.539-12.539-12.539h-17.322c-20.417,0-37.028,16.611-37.028,37.029
	c0,19.979,16.254,36.234,36.234,36.234h102.617c13.251,0,24.033,10.78,24.033,24.033s-10.781,24.033-24.033,24.033h-42.356
	c-25.927,0-47.02,21.093-47.02,47.02s21.093,47.02,47.02,47.02h10.001c21.724,0,39.399,17.673,39.399,39.398
	c0,9.515-3.443,18.707-9.694,25.883l-19.093,21.915c-4.549,5.22-4.652,14.013,1.216,17.691
	C269.135,491.802,313.718,453.836,315.748,422.53z"/>
<path style="fill:#A9CF54;" d="M245.379,128.463c0,0-58.187-7.687-72.953-51.094C157.66,33.962,148.604,27.2,130.493,27.2
	c-22.64,0-100.4,25.142-122.579,138.437c-0.359,1.838,0.576,3.679,2.258,4.517c7.681,3.829,30.462,10.572,59.717-22.779
	c0,0,30.645,44.246,67.055-15.736c0,0,7.141,50.099,42.442,12.659c21.142-22.424,65.993,19.342,65.993,19.342V128.463z"/>
<path style="fill:#8AA848;" d="M32.255,167.863c19.8-101.138,83.888-132.024,113.52-137.489c-4.477-2.449-9.401-3.174-15.283-3.174
	c-22.64,0-100.4,25.142-122.579,138.437c-0.359,1.838,0.576,3.679,2.258,4.517c4.116,2.051,12.573,4.933,24.035,2.04
	C32.725,171.294,31.918,169.583,32.255,167.863z"/>
<path style="fill:#A9CF54;" d="M266.621,128.463c0,0,58.187-7.687,72.953-51.094S363.396,27.2,381.507,27.2
	c22.64,0,100.4,25.142,122.579,138.437c0.359,1.838-0.576,3.679-2.258,4.517c-7.681,3.829-30.462,10.572-59.717-22.779
	c0,0-30.645,44.246-67.055-15.736c0,0-7.141,50.099-42.442,12.659c-21.142-22.424-65.993,19.342-65.993,19.342V128.463z"/>
<path style="fill:#8AA848;" d="M360.302,77.369c11.644-34.233,19.741-45.667,31.527-48.973c-4.101-0.829-7.61-1.195-10.32-1.195
	c-18.111,0-27.167,6.762-41.933,50.169c-8.994,26.443-34.103,39.63-52.356,45.898C314.564,116.999,351.306,103.812,360.302,77.369z"
	/>
<path style="fill:#6DD0E3;" d="M275.759,75.413l-4.434,413.591c-0.09,8.4-6.925,15.161-15.326,15.161l0,0
	c-8.4,0-15.235-6.762-15.326-15.161l-4.434-413.591L256,73.145L275.759,75.413z"/>
<path style="fill:#34A4BA;" d="M260.433,489.004L256,75.413l9.88-1.134L256,73.145l-19.759,2.267l4.434,413.591
	c0.09,8.4,6.925,15.161,15.326,15.161c3.766,0,7.21-1.366,9.88-3.622C262.593,497.767,260.484,493.638,260.433,489.004z"/>
<circle style="fill:#FFA163;" cx="256" cy="48.989" r="41.148"/>
<path style="fill:#E88441;" d="M235.748,48.989c0-19.115,13.035-35.183,30.701-39.807c-3.337-0.874-6.838-1.343-10.449-1.343
	c-22.727,0-41.15,18.424-41.15,41.15S233.273,90.14,256,90.14c3.611,0,7.112-0.469,10.449-1.343
	C248.784,84.172,235.748,68.105,235.748,48.989z"/>
<path style="fill:#FFDC7B;" d="M196.252,422.53c-2.301-35.477,28.924-64.475,64.476-64.475h10.001
	c12.1,0,21.943-9.844,21.943-21.943s-9.843-21.943-21.943-21.943h-42.356c-27.08,0-49.11-22.031-49.11-49.11
	s22.031-49.11,49.11-49.11H330.99c6.151,0,11.156-5.005,11.156-11.156c0-6.59-5.361-11.952-11.951-11.952h-17.322
	c-6.925,0-12.539-5.614-12.539-12.539c0-6.925,5.614-12.539,12.539-12.539h17.322c20.417,0,37.028,16.611,37.028,37.029
	c0,19.979-16.254,36.234-36.234,36.234H228.373c-13.251,0-24.033,10.78-24.033,24.033s10.781,24.033,24.033,24.033h42.356
	c25.927,0,47.02,21.093,47.02,47.02s-21.093,47.02-47.02,47.02h-10.001c-21.724,0-39.399,17.673-39.399,39.398
	c0,9.515,3.443,18.707,9.694,25.883l19.093,21.915c4.549,5.22,4.652,14.013-1.216,17.691
	C242.864,491.802,198.282,453.836,196.252,422.53z"/>
<path d="M511.784,164.133c-12.353-63.094-41.543-98.053-63.856-116.269c-27.553-22.497-54.717-28.499-66.423-28.499
	c-23.928,0-34.537,11.925-49.352,55.48c-8.215,24.163-32.519,36.065-48.994,41.505l0.286-26.805
	c12.99-8.819,21.542-23.707,21.542-40.556c0.002-27.013-21.974-48.988-48.985-48.988c-27.012,0-48.987,21.975-48.987,48.987
	c0,16.849,8.552,31.738,21.543,40.556l0.287,26.806c-16.475-5.442-40.779-17.343-48.994-41.508
	c-14.815-43.553-25.423-55.479-49.352-55.479c-13.078,0-43.016,7.061-72.278,33.528c-3.21,2.904-3.459,7.859-0.555,11.07
	c2.904,3.209,7.86,3.459,11.069,0.555c23.91-21.627,50.036-29.479,61.763-29.479c12.653,0,19.935,1.996,34.512,44.851
	c11.296,33.226,45.014,47.42,64.009,52.912l0.094,8.81c-23.7-14.704-43.095-15.762-55.426-2.684
	c-7.915,8.394-14.772,12.475-18.824,11.202c-5.209-1.641-9.144-12.671-10.161-19.594c-0.466-3.278-2.942-5.908-6.186-6.572
	c-3.241-0.66-6.554,0.781-8.271,3.611c-10.772,17.744-21.953,27.315-32.336,27.674c-12.426,0.436-21.503-12.235-21.573-12.334
	c-1.374-1.983-3.585-3.225-5.995-3.362c-2.407-0.14-4.748,0.841-6.339,2.655c-22.646,25.818-39.659,24.876-47.809,22.001
	c4.979-23.982,12.899-45.373,23.56-63.619c2.184-3.738,0.924-8.537-2.813-10.721c-3.737-2.184-8.536-0.925-10.72,2.812
	c-11.983,20.508-20.731,44.548-26.006,71.473c-1.017,5.268,1.642,10.621,6.455,13.012c3.807,1.898,10.06,4.172,18.158,4.172
	c11.732-0.001,27.331-4.772,44.959-22.384c5.959,5.583,15.867,12.334,28.508,11.96c12.603-0.377,24.633-7.629,35.892-21.596
	c3.155,6.641,8.149,13.276,15.925,15.743c3.088,0.98,6.292,1.2,9.601,0.701c-13.581,7.721-22.767,22.316-22.767,39.027
	c0,21.898,16.052,40.11,37.003,43.5c-1.637,5.303-2.522,10.933-2.522,16.765c0,18.115,8.513,34.271,21.737,44.708
	c-4.431,8.031-6.753,17-6.753,26.348c0,15.518,6.499,30.019,17.713,40.319c-11.232,13.291-16.788,29.7-15.691,46.602
	c1.7,26.203,27.963,54.373,44.422,66.351c0.148,6.037,2.568,11.682,6.865,15.929c4.376,4.311,10.159,6.684,16.283,6.684
	c12.516,0,22.827-10.092,23.153-22.565c16.427-11.844,42.7-39.934,44.414-66.405c1.088-16.844-4.587-33.382-15.714-46.579
	c10.893-10.032,17.732-24.401,17.732-40.341c0-9.537-2.451-18.51-6.749-26.332c13.571-10.722,21.738-27.209,21.738-44.717
	c0-5.704-0.887-11.357-2.556-16.766c20.971-3.376,37.042-21.595,37.042-43.503c0-16.713-9.192-31.31-22.78-39.029
	c3.311,0.501,6.519,0.281,9.609-0.699c7.776-2.467,12.772-9.101,15.925-15.743c11.258,13.967,23.289,21.219,35.891,21.596
	c0.343,0.01,0.683,0.016,1.023,0.016c20.364,0,33.275-18.303,33.822-19.094c2.464-3.559,1.577-8.441-1.982-10.905
	c-3.559-2.465-8.44-1.576-10.905,1.981c-0.088,0.127-9.125,12.688-21.489,12.336c-10.408-0.312-21.619-9.883-32.42-27.676
	c-1.716-2.825-5.024-4.259-8.256-3.606c-3.239,0.656-5.719,3.282-6.199,6.552c-1.019,6.939-4.953,17.969-10.163,19.611
	c-4.057,1.275-10.909-2.81-18.824-11.202c-12.329-13.077-31.725-12.021-55.427,2.684l0.094-8.81
	c18.995-5.492,52.713-19.685,64.008-52.91c14.577-42.856,21.859-44.852,34.512-44.852c18.638,0,92.087,22.021,114.302,129.157
	c-2.834,0.981-7.026,1.826-12.259,1.144c-4.288-0.559-8.223,2.467-8.783,6.759c-0.559,4.29,2.467,8.223,6.759,8.783
	c2.052,0.268,4.01,0.386,5.871,0.386c7.834,0,13.924-2.108,17.925-4.096C510.145,174.776,512.803,169.423,511.784,164.133z
	 M256.002,15.676c18.369,0,33.313,14.944,33.313,33.313s-14.944,33.313-33.313,33.313s-33.313-14.944-33.313-33.313
	S237.633,15.676,256.002,15.676z M185.091,149.679c10.604-11.247,33.784,3.397,44.226,11.017l0.508,47.415h-1.452
	c-0.041,0-0.08,0.003-0.12,0.003h-47.244c-1.826,0-3.312-1.491-3.312-3.323c0-2.271,1.842-4.117,4.106-4.117h17.324
	c11.236,0,20.376-9.141,20.376-20.376s-9.141-20.376-20.376-20.376h-17.324c-3.525,0-6.952,0.422-10.244,1.194
	C175.928,158.414,180.443,154.608,185.091,149.679z M181.009,233.192c-15.655,0-28.39-12.739-28.39-28.4
	c0-16.098,13.092-29.194,29.184-29.194h17.324c2.592,0,4.702,2.11,4.702,4.702s-2.11,4.702-4.702,4.702h-17.324
	c-10.907,0-19.78,8.878-19.78,19.79c0,10.474,8.517,18.996,18.986,18.996h8.188c-2.987,2.837-5.678,5.983-7.996,9.404
	L181.009,233.192L181.009,233.192z M202.084,336.115c0-6.518,1.577-12.782,4.599-18.412c2.942,1.217,6.01,2.187,9.175,2.9
	c-2.77,4.521-4.37,9.832-4.37,15.512c0,9.858,4.818,18.608,12.218,24.031c-2.843,1.633-5.584,3.452-8.196,5.455
	C207.026,358.204,202.084,347.543,202.084,336.115z M231.095,326.369l0.208,19.719c-2.557-2.555-4.141-6.082-4.141-9.974
	C227.162,332.334,228.665,328.905,231.095,326.369z M260.73,350.218c-1.583,0-3.16,0.069-4.732,0.17
	c-1.623-0.11-3.174-0.167-4.72-0.167h-4.258l-0.298-28.212h18.557l-0.304,28.209H260.73z M280.908,326.371
	c2.427,2.535,3.928,5.963,3.928,9.741c0,3.891-1.584,7.42-4.141,9.974L280.908,326.371z M231.985,409.52l0.283,26.652
	c-2.026-4.227-3.101-8.884-3.101-13.642C229.167,417.893,230.18,413.491,231.985,409.52z M256.002,496.329
	c-1.413,0-2.767-0.399-3.943-1.13c0.338-0.159,0.674-0.333,1.006-0.541c4.361-2.733,7.197-7.167,7.985-12.483
	c0.891-6.012-0.986-12.366-5.022-16.996l-7.872-9.035l-0.661-62.254c2.645-1.227,5.483-2.105,8.459-2.559
	c2.983,0.444,5.846,1.301,8.554,2.557l-0.693,64.958c-0.002,0.061-0.001,0.121-0.002,0.182l-0.319,29.889
	C263.449,493.003,260.088,496.329,256.002,496.329z M280.015,409.49c1.828,4.027,2.819,8.452,2.819,13.038
	c0,4.768-1.075,9.428-3.103,13.655L280.015,409.49z M307.928,422.022c-1.023,15.798-15.598,34.721-28.546,46.865l0.072-6.802
	l7.424-8.52c7.499-8.589,11.63-19.612,11.63-31.036c0-12.71-5.048-24.598-13.83-33.362c3.546-0.933,6.951-2.215,10.179-3.802
	C304.06,395.675,308.785,408.76,307.928,422.022z M266.063,248.866l-0.345,32.389h-19.434l-0.345-32.389H266.063z M283.629,281.258
	h-2.235l0.345-32.392h1.89c8.931,0,16.196,7.265,16.196,16.196C299.825,273.993,292.56,281.258,283.629,281.258z M228.344,248.864
	c0.01,0,0.02,0.001,0.03,0.001h1.89l0.345,32.389h-2.236c-8.931,0-16.196-7.265-16.196-16.196
	C212.178,256.138,219.427,248.881,228.344,248.864z M309.401,297.245c-2.277-2.265-4.756-4.325-7.4-6.166
	c8.158-5.777,13.498-15.282,13.498-26.016c0-5.911-1.624-11.449-4.44-16.199h10.504c2.183,5.094,3.34,10.613,3.34,16.199
	C324.903,277.629,319.08,289.463,309.401,297.245z M330.992,233.189H228.375c-17.573,0-31.869,14.297-31.869,31.869
	s14.296,31.869,31.869,31.869h10.094c0.021,0,0.041,0.003,0.061,0.003c0.028,0,0.056,0,0.086,0c0.017,0,0.033-0.002,0.05-0.003
	h2.543c0.021,0,0.041,0.003,0.061,0.003h29.582c21.551,0.066,39.064,17.615,39.064,39.181c0,21.606-17.577,39.184-39.184,39.184h-10
	c-1.815,0-3.604,0.113-5.367,0.313c-0.063,0.005-0.124,0.017-0.187,0.024c-7.094,0.835-13.708,3.244-19.488,6.874
	c-0.212,0.123-0.417,0.254-0.615,0.395c-12.973,8.428-21.578,23.038-21.578,39.628c0,11.407,4.127,22.428,11.622,31.03
	l19.094,21.916c0.86,0.986,1.374,2.406,1.38,3.709c-0.519-0.425-1.098-0.778-1.716-1.06c-12.102-8.004-38.378-34.158-39.801-56.103
	c-0.891-13.727,4.064-27.095,13.95-37.643c6.554-6.992,14.728-12.193,23.667-15.272c0.025-0.008,0.05-0.018,0.075-0.026
	c6.057-2.077,12.461-3.19,18.964-3.19h10c0.882,0,1.752-0.046,2.615-0.121c0.081-0.006,0.163-0.01,0.245-0.019
	c15.084-1.444,26.921-14.183,26.921-29.64c0-16.421-13.359-29.78-29.78-29.78h-42.356c-22.758,0-41.273-18.516-41.273-41.273
	c0-22.718,18.451-41.204,41.153-41.27h9.492h0.086h36.344h0.084h9.372c0.021,0,0.04-0.003,0.061-0.003h47.301
	c10.472,0,18.993-8.52,18.993-18.993c0-10.911-8.876-19.788-19.788-19.788h-17.322c-2.592,0-4.702-2.11-4.702-4.702
	s2.11-4.702,4.702-4.702H330.2c16.096,0,29.192,13.095,29.192,29.192C359.388,220.451,346.65,233.189,330.992,233.189z
	 M326.913,149.679c4.651,4.933,9.17,8.741,13.543,11.446c-3.298-0.774-6.729-1.197-10.26-1.197h-17.322
	c-11.235,0-20.376,9.141-20.376,20.376s9.141,20.376,20.376,20.376h17.322c2.268,0,4.115,1.846,4.115,4.115
	c0,1.831-1.489,3.32-3.32,3.32h-48.817l0.011-1.138c0.045-4.329-3.427-7.873-7.755-7.918c-0.028,0-0.056,0-0.084,0
	c-4.289,0-7.79,3.455-7.835,7.755l-0.014,1.301H245.5l-1.194-111.557c3.75,0.923,7.664,1.422,11.696,1.422
	c4.03,0,7.944-0.499,11.694-1.421l-0.713,66.714c-0.046,4.328,3.425,7.873,7.753,7.92c0.028,0,0.057,0,0.086,0
	c4.289,0,7.789-3.454,7.835-7.753l0.029-2.741C293.13,153.075,316.309,138.432,326.913,149.679z"/>
<path d="M73.701,123.872c1.009,0.436,2.059,0.641,3.093,0.641c3.032,0,5.92-1.77,7.202-4.727c0.119-0.276,12.285-27.8,42.49-50.86
	c3.44-2.626,4.099-7.544,1.473-10.984c-2.626-3.44-7.543-4.101-10.985-1.473c-33.642,25.684-46.833,55.856-47.379,57.129
	C67.894,117.569,69.733,122.162,73.701,123.872z"/>
<path d="M395.027,56.468c-3.44-2.629-8.359-1.968-10.984,1.473c-2.627,3.44-1.968,8.358,1.473,10.984
	c30.134,23.007,42.313,50.457,42.488,50.858c1.277,2.964,4.165,4.739,7.202,4.739c1.029,0,2.076-0.204,3.082-0.635
	c3.979-1.705,5.821-6.312,4.116-10.29C441.861,112.324,428.668,82.151,395.027,56.468z"/>
<path d="M143.938,117.466c1.259,0.752,2.643,1.11,4.009,1.11c2.669,0,5.269-1.364,6.736-3.82c0.044-0.074,4.448-7.446,7.598-12.12
	c2.418-3.59,1.47-8.461-2.119-10.878c-3.588-2.417-8.459-1.469-10.878,2.119c-3.388,5.027-7.869,12.527-8.058,12.844
	C139.008,110.436,140.222,115.247,143.938,117.466z"/>
<path d="M354.769,91.757c-3.589,2.418-4.538,7.289-2.119,10.878c3.146,4.668,7.555,12.045,7.598,12.12
	c1.467,2.458,4.068,3.82,6.735,3.82c1.368,0,2.751-0.357,4.01-1.11c3.717-2.218,4.93-7.03,2.712-10.746
	c-0.189-0.317-4.672-7.817-8.058-12.844C363.23,90.287,358.358,89.338,354.769,91.757z"/>
<g>
</g>
<g>
</g>
<g>
</g>
<g>
</g>
<g>
</g>
<g>
</g>
<g>
</g>
<g>
</g>
<g>
</g>
<g>
</g>
<g>
</g>
<g>
</g>
<g>
</g>
<g>
</g>
<g>
</g>
</svg>
