<?xml version="1.0" encoding="UTF-8"?>
<!DOCTYPE svg PUBLIC "-//W3C//DTD SVG 1.1//EN" "http://www.w3.org/Graphics/SVG/1.1/DTD/svg11.dtd">
<!-- Creator: CorelDRAW -->
<svg xmlns="http://www.w3.org/2000/svg" xml:space="preserve" width="2048px" height="2048px" style="shape-rendering:geometricPrecision; text-rendering:geometricPrecision; image-rendering:optimizeQuality; fill-rule:evenodd; clip-rule:evenodd"
viewBox="0 0 2048 2048"
 xmlns:xlink="http://www.w3.org/1999/xlink">
 <defs>
  <style type="text/css">
   <![CDATA[
    .fil1 {fill:none}
    .fil0 {fill:#212121;fill-rule:nonzero}
   ]]>
  </style>
 </defs>
 <g id="Layer_x0020_1">
  <metadata id="CorelCorpID_0Corel-Layer"/>
  <path class="fil0" d="M1095.79 488.178c4.81418,-12.3225 -1.27087,-26.2169 -13.5933,-31.0311 -12.3225,-4.81418 -26.2169,1.27087 -31.0311,13.5933 -19.748,50.5737 -49.6134,95.8099 -87.1619,133.275 -37.6229,37.5378 -82.9288,67.3312 -133.476,86.9375 -12.3225,4.76339 -18.45,18.6154 -13.6866,30.9378 4.76339,12.3225 18.6154,18.45 30.9378,13.6866 56.8619,-22.0559 107.767,-55.5107 149.976,-97.6241 42.2835,-42.1902 75.8776,-93.0296 98.0351,-149.775z"/>
  <path class="fil0" d="M1096.07 471.585c-4.34882,-12.4772 -17.9917,-19.0666 -30.4689,-14.7177 -12.4772,4.34882 -19.0666,17.9917 -14.7177,30.4689 8.62323,24.7618 14.6433,50.1485 18.0862,75.7631 3.46536,25.7823 4.29803,51.887 2.5311,77.9044 -0.879922,13.2024 9.11103,24.6201 22.3134,25.5 13.2024,0.879922 24.6201,-9.11103 25.5,-22.3134 1.9689,-28.9984 1.01339,-58.3063 -2.9067,-87.4666 -3.86457,-28.7445 -10.6323,-57.2705 -20.3374,-85.1386z"/>
  <path class="fil0" d="M1529.5 735.769c12.4264,4.55552 26.1945,-1.82362 30.75,-14.25 4.55552,-12.4264 -1.82362,-26.1945 -14.25,-30.75 -64.7067,-23.7685 -123.193,-57.5315 -172.269,-98.6233 -48.8126,-40.8697 -88.232,-88.8426 -115.09,-141.266 -6.00591,-11.7532 -20.4036,-16.4114 -32.1567,-10.4055 -11.7532,6.00591 -16.4114,20.4036 -10.4055,32.1567 29.915,58.3902 73.3749,111.449 126.901,156.266 53.2607,44.5949 116.588,81.1843 186.52,106.872z"/>
  <path class="fil0" d="M1081.06 623.378c-10.6134,7.92048 -12.7961,22.9488 -4.87559,33.5622 7.92048,10.6134 22.9488,12.7961 33.5622,4.87559 29.041,-21.6803 58.2355,-51.1748 83.9469,-83.5879 25.9973,-32.7733 48.587,-68.7473 63.9768,-102.816 5.43544,-12.0626 0.0625985,-26.2512 -12,-31.6866 -12.0626,-5.43544 -26.2512,-0.0625985 -31.6866,12 -13.7728,30.4914 -34.1835,62.9292 -57.7902,92.6894 -23.1969,29.2441 -49.3382,55.7067 -75.1335,74.9634z"/>
  <path class="fil0" d="M1173.9 255.793c109.226,0 208.114,44.2748 279.695,115.856 71.5808,71.5808 115.856,170.469 115.856,279.695 0,109.225 -44.2748,208.114 -115.856,279.695 -71.5808,71.5796 -170.469,115.856 -279.695,115.856 -109.226,0 -208.115,-44.276 -279.696,-115.856 -71.5796,-71.5808 -115.856,-170.47 -115.856,-279.695 0,-109.225 44.276,-208.114 115.856,-279.695 71.5808,-71.5796 170.47,-115.856 279.696,-115.856zm245.757 149.793c-62.8926,-62.8926 -149.782,-101.793 -245.757,-101.793 -95.9765,0 -182.865,38.902 -245.758,101.793 -62.8914,62.8926 -101.793,149.783 -101.793,245.757 0,95.9741 38.902,182.864 101.793,245.757 62.8926,62.8914 149.782,101.793 245.758,101.793 95.9753,0 182.864,-38.902 245.757,-101.793 62.8926,-62.8926 101.793,-149.783 101.793,-245.757 0,-95.9753 -38.9008,-182.864 -101.793,-245.757z"/>
  <path class="fil0" d="M687.055 1343.39c34.4469,-79.9489 90.0898,-139.41 171.204,-178.924 79.5851,-38.7674 183.401,-57.8776 315.65,-57.8776 124.98,0 227.284,23.2418 306.464,61.317 90.645,43.5886 151.159,106.742 181.076,177.209l0.0874016 -0.0366142c0.679134,1.60039 1.16811,3.23268 1.48347,4.87323l102.48 388.137 0.0531496 -0.0141732c3.38268,12.815 -4.26378,25.9488 -17.0788,29.3315 -2.21575,0.584646 -4.43977,0.838583 -6.62363,0.794883l-1136.39 0c-13.2543,0 -24,-10.7457 -24,-24 0,-2.71536 0.452363,-5.32559 1.28268,-7.75867l17.2217 -65.2288c15.5185,4.01929 31.3866,6.72048 47.3906,8.10591l-10.7929 40.8815 1074.68 0 -94.5639 -358.157c-25.7658,-59.4284 -78.156,-113.132 -156.933,-151.014 -72.8847,-35.0481 -168.184,-56.4414 -285.84,-56.4414 -124.864,0 -221.769,17.5004 -294.65,53.002 -70.2579,34.2236 -118.426,85.6312 -148.202,154.69l-58.6536 222.163c-16.1528,-0.0165354 -32.3303,-1.97362 -47.9575,-5.96103l60.756 -230.124 23.1567 6.09331 -23.2051 -6.12638c0.46063,-1.74685 1.10433,-3.39685 1.90158,-4.93583z"/>
  <path class="fil0" d="M980.704 1157.05c-7.19646,-11.0799 -22.0134,-14.2276 -33.0933,-7.03111 -11.0799,7.19646 -14.2276,22.0134 -7.03111,33.0933 24.8587,38.1036 59.8123,68.7815 100.678,89.8725 40.6548,20.9811 87.1501,32.5465 135.328,32.5465 46.1906,0 90.932,-10.65 130.492,-30.111 39.7028,-19.5319 74.1485,-48.0178 99.5871,-83.6115 7.663,-10.7693 5.14489,-25.7126 -5.62441,-33.3756 -10.7693,-7.663 -25.7126,-5.14489 -33.3756,5.62441 -20.7189,28.989 -49.0087,52.3063 -81.7737,68.4249 -32.9079,16.1894 -70.3796,25.0488 -109.305,25.0488 -40.5768,0 -79.5296,-9.63308 -113.391,-27.1087 -33.652,-17.3681 -62.2973,-42.4193 -82.4918,-73.3725z"/>
  <path class="fil0" d="M542.098 1037.58c-1.44921,-8.69764 -9.67678,-14.5748 -18.3744,-13.1256 -8.69764,1.44921 -14.5748,9.67678 -13.1256,18.3744 13.526,81.1536 -10.9701,161.518 -33.9307,236.845 -36.6756,120.324 -69.7004,228.672 45.6473,318.77 2.32795,1.81772 4.68662,3.58701 7.06772,5.29961 51.5221,37.0618 115.6,50.0056 175.226,42.7429 60.006,-7.3063 115.897,-35.1036 150.525,-79.4327 1.42087,-1.8189 2.8063,-3.66733 4.15276,-5.53819 5.14252,-7.14449 3.51851,-17.1071 -3.62599,-22.2496 -7.14449,-5.14252 -17.1071,-3.51851 -22.2496,3.62599 -1.10315,1.53307 -2.23937,3.04843 -3.40158,4.53662 -29.2311,37.4209 -77.217,60.9851 -129.149,67.3075 -52.3122,6.37087 -108.246,-4.77992 -152.854,-36.8681 -2.04567,-1.47165 -4.07126,-2.99055 -6.06615,-4.54843 -98.1001,-76.6264 -68.0941,-175.07 -34.7717,-284.395 24.0295,-78.8327 49.6642,-162.937 34.9299,-251.345z"/>
  <path class="fil0" d="M880.856 1424.95c22.6477,0 43.1563,9.18308 58.0028,24.0295 14.8465,14.8465 24.0295,35.3551 24.0295,58.0028 0,22.65 -9.18308,43.1587 -24.0295,58.0028 -14.8465,14.8465 -35.3551,24.0295 -58.0028,24.0295 -22.65,0 -43.1587,-9.18308 -58.0028,-24.0295 -14.8465,-14.8441 -24.0295,-35.3528 -24.0295,-58.0028 0,-22.6477 9.18308,-43.1563 24.0295,-58.0028 14.8441,-14.8465 35.3528,-24.0295 58.0028,-24.0295zm12.7524 69.28c-3.26103,-3.26103 -7.77048,-5.27835 -12.7524,-5.27835 -4.98189,0 -9.49253,2.01851 -12.7524,5.27835 -3.26103,3.26103 -5.27835,7.77048 -5.27835,12.7524 0,4.98189 2.01851,9.49253 5.27835,12.7524 3.25985,3.25985 7.77048,5.27835 12.7524,5.27835 4.98189,0 9.49135,-2.01732 12.7524,-5.27835 3.25985,-3.25985 5.27835,-7.77048 5.27835,-12.7524 0,-4.98189 -2.01732,-9.49135 -5.27835,-12.7524z"/>
  <path class="fil0" d="M514.555 544.361c-8.69764,1.48347 -14.5465,9.73938 -13.063,18.437 1.48347,8.69764 9.73938,14.5465 18.437,13.063l51.0969 -8.91261c4.22244,-0.735827 8.5819,-0.827953 12.9036,-0.35315 9.7819,1.07599 19.3677,5.01142 26.9079,10.9453 6.86812,5.40473 11.8158,12.3496 13.1492,20.002l15.75 -2.68701 -15.7618 2.74843 0.0874016 0.461811c0.341339,2.18858 0.405118,4.43622 0.154725,6.72048l-31.154 283.234c-4.05945,36.9059 -19.6382,64.9477 -40.6051,82.48 -13.2201,11.0551 -28.5697,17.9256 -44.4284,20.1567 -15.8303,2.22756 -32.2311,-0.10748 -47.5867,-7.44804 -23.4744,-11.2252 -44.8181,-34.1445 -58.7682,-70.3725l-102.391 -265.91c-0.748819,-1.94646 -1.23898,-3.89764 -1.48937,-5.83111 -1.02992,-7.94174 1.94646,-16.0618 7.32756,-23.1437 6.02835,-7.93465 14.8583,-14.4402 24.6721,-18.2185 3.87402,-1.49055 7.87796,-2.54055 11.889,-3.06024l50.7685 -6.58583c8.7319,-1.10433 14.9173,-9.08032 13.813,-17.8122 -1.10433,-8.7319 -9.08032,-14.9173 -17.8122,-13.813l-50.7685 6.58583c-6.55985,0.850394 -13.0453,2.54173 -19.2638,4.93583 -15.2717,5.87953 -29.1107,16.1327 -38.6729,28.7185 -10.2095,13.4362 -15.7547,29.6114 -13.578,46.3926 0.570473,4.39961 1.67599,8.81694 3.36496,13.2059l102.391 265.91c17.1591,44.5642 44.3929,73.2249 74.7674,87.7489 21.2445,10.1563 43.891,13.3925 65.7119,10.3228 21.7937,-3.06614 42.7158,-12.365 60.5528,-27.2811 26.9032,-22.4965 46.8178,-57.7878 51.8563,-103.605l31.154 -283.234c0.583465,-5.3067 0.432284,-10.4504 -0.367323,-15.3827 -0.0295276,-0.223229 -0.0625985,-0.447638 -0.101575,-0.672048l-0.011811 0.00236221 0 -0.00354331 -0.0106299 0.00236221c-2.79921,-15.9543 -12.1323,-29.6551 -24.8882,-39.6922 -12.0969,-9.51969 -27.515,-15.8374 -43.2827,-17.5713 -7.22835,-0.794883 -14.5406,-0.636615 -21.6532,0.603544l-51.0969 8.91261z"/>
  <path class="fil0" d="M640.688 893.084c1.86378,-17.5347 -10.8402,-33.2622 -28.3748,-35.126 -17.5347,-1.86378 -33.2622,10.8402 -35.126,28.3748 -3.56929,32.4496 -16.9807,56.8666 -34.9807,71.9186 -10.911,9.12402 -23.4732,14.7803 -36.365,16.5933 -12.835,1.80591 -26.1142,-0.0779528 -38.524,-6.01063 -20.0244,-9.5752 -38.4237,-29.6244 -50.7685,-61.6855 -6.28229,-16.4291 -24.6957,-24.6567 -41.1248,-18.3744 -16.4291,6.28229 -24.6567,24.6957 -18.3744,41.1248 18.763,48.7311 48.9414,80.2619 82.767,96.4359 24.1902,11.5654 49.9559,15.2516 74.7745,11.7602 24.7606,-3.48307 48.4713,-13.9984 68.6162,-30.8445 29.8701,-24.978 51.952,-63.8941 57.4808,-114.167z"/>
 </g>
 <rect class="fil1" width="2048" height="2048"/>
</svg>
