<?xml version="1.0" encoding="iso-8859-1"?>
<!-- Generator: Adobe Illustrator 19.0.0, SVG Export Plug-In . SVG Version: 6.00 Build 0)  -->
<svg xmlns="http://www.w3.org/2000/svg" xmlns:xlink="http://www.w3.org/1999/xlink" version="1.1" id="Capa_1" x="0px" y="0px" viewBox="0 0 512 512" style="enable-background:new 0 0 512 512;" xml:space="preserve">
<polygon style="fill:#565656;" points="354.979,51.995 354.979,103.007 157.021,103.007 157.021,51.995 66.318,51.995   66.318,504.488 445.682,504.488 445.682,51.995 "/>
<rect x="126.972" y="51.995" style="fill:#353535;" width="30.045" height="51.011"/>
<rect x="415.639" y="51.995" style="fill:#494949;" width="30.045" height="452.495"/>
<polygon style="fill:#F9F1EF;" points="354.979,84.049 354.979,103.007 157.021,103.007 157.021,84.049 108.728,84.049   108.728,460.368 403.272,460.368 403.272,84.049 "/>
<g>
	<rect x="127.974" y="84.049" style="fill:#DDDBDB;" width="29.044" height="26.3"/>
	<rect x="374.226" y="84.049" style="fill:#DDDBDB;" width="29.044" height="376.32"/>
</g>
<path style="fill:#F2CA5A;" d="M320.655,39.181c0-14.172-11.488-31.67-25.661-31.67h-77.988c-14.172,0-25.661,17.498-25.661,31.67  h-34.324v63.825H354.98V39.181H320.655z"/>
<rect x="157.018" y="76.968" style="fill:#FFAE47;" width="197.96" height="26.039"/>
<path style="fill:#EF3A47;" d="M295.646,167.934h-22.33v-22.33c0-3.43-2.781-6.211-6.211-6.211h-22.21  c-3.43,0-6.211,2.781-6.211,6.211v22.33h-22.331c-3.43,0-6.211,2.781-6.211,6.211v22.21c0,3.43,2.781,6.211,6.211,6.211h22.331  v22.33c0,3.431,2.781,6.211,6.211,6.211h22.209c3.431,0,6.211-2.781,6.211-6.211v-22.33h22.33c3.431,0,6.211-2.781,6.211-6.211  v-22.21C301.859,170.715,299.078,167.934,295.646,167.934z"/>
<path d="M445.682,44.483h-83.191v-5.302c0-4.149-3.362-7.511-7.511-7.511h-27.594C324.139,15.712,311.129,0,294.993,0h-77.988  c-16.135,0-29.145,15.712-32.391,31.67h-27.594c-4.149,0-7.511,3.362-7.511,7.511v5.302H66.318c-4.149,0-7.511,3.362-7.511,7.511  v336.179c0,4.149,3.362,7.511,7.511,7.511s7.511-3.362,7.511-7.511V59.506h75.68v17.033h-40.783c-4.148,0-7.511,3.362-7.511,7.511  v60.289c0,4.149,3.363,7.511,7.511,7.511c4.149,0,7.511-3.362,7.511-7.511V91.562h33.271v11.445c0,4.149,3.362,7.511,7.511,7.511  h197.958c4.149,0,7.511-3.362,7.511-7.511V91.562h33.271v165.625c0,4.149,3.363,7.511,7.511,7.511c4.149,0,7.511-3.362,7.511-7.511  V84.05c0-4.149-3.362-7.511-7.511-7.511H362.49V59.506h75.68v437.471H73.83v-78.759c0-4.149-3.362-7.511-7.511-7.511  s-7.511,3.362-7.511,7.511v86.271c0,4.148,3.362,7.511,7.511,7.511h379.363c4.149,0,7.511-3.363,7.511-7.511V51.995  C453.193,47.845,449.83,44.483,445.682,44.483z M347.467,95.496H164.532V84.05V51.995v-5.302h26.812  c4.149,0,7.511-3.362,7.511-7.511c0-10.548,8.801-24.159,18.149-24.159h77.988c9.349,0,18.15,13.611,18.15,24.159  c0,4.149,3.362,7.511,7.511,7.511h26.812v5.302V84.05v11.445H347.467z"/>
<path d="M108.727,166.873c-4.148,0-7.511,3.362-7.511,7.511v285.984c0,4.148,3.363,7.511,7.511,7.511h294.546  c4.149,0,7.511-3.363,7.511-7.511V287.232c0-4.149-3.362-7.511-7.511-7.511c-4.148,0-7.511,3.362-7.511,7.511v165.625H116.238  V174.384C116.238,170.235,112.876,166.873,108.727,166.873z"/>
<path d="M149.509,271.208c0,4.149,3.362,7.511,7.511,7.511h197.958c4.149,0,7.511-3.362,7.511-7.511s-3.362-7.511-7.511-7.511  H157.021C152.872,263.696,149.509,267.058,149.509,271.208z"/>
<path d="M157.021,322.715h197.958c4.149,0,7.511-3.362,7.511-7.511c0-4.149-3.362-7.511-7.511-7.511H157.021  c-4.149,0-7.511,3.362-7.511,7.511C149.509,319.353,152.872,322.715,157.021,322.715z"/>
<path d="M157.021,366.711h197.958c4.149,0,7.511-3.362,7.511-7.511c0-4.149-3.362-7.511-7.511-7.511H157.021  c-4.149,0-7.511,3.362-7.511,7.511C149.509,363.349,152.872,366.711,157.021,366.711z"/>
<path d="M156.454,410.708h123.996c4.149,0,7.511-3.362,7.511-7.511s-3.362-7.511-7.511-7.511H156.454  c-4.149,0-7.511,3.362-7.511,7.511C148.942,407.345,152.305,410.708,156.454,410.708z"/>
<path d="M267.104,131.881h-22.21c-7.567,0-13.724,6.155-13.724,13.723v14.819h-14.818c-7.567,0-13.723,6.155-13.723,13.723v22.211  c0,7.567,6.155,13.723,13.723,13.723h14.818v14.819c0,7.567,6.157,13.723,13.724,13.723h22.21c7.567,0,13.724-6.155,13.724-13.723  v-14.819h14.818c7.567,0,13.723-6.155,13.723-13.723v-22.211c0-7.567-6.155-13.723-13.723-13.723h-14.818v-14.819  C280.828,138.036,274.672,131.881,267.104,131.881z M294.347,175.446v19.611h-21.03c-4.149,0-7.511,3.362-7.511,7.511v21.031  h-19.612v-21.031c0-4.149-3.362-7.511-7.511-7.511h-21.03v-19.611h21.03c4.149,0,7.511-3.362,7.511-7.511v-21.031h19.612v21.031  c0,4.149,3.362,7.511,7.511,7.511H294.347z"/>
<path d="M282.209,24.641H229.79c-4.149,0-7.511,3.362-7.511,7.511c0,4.149,3.362,7.511,7.511,7.511h52.419  c4.148,0,7.511-3.362,7.511-7.511S286.358,24.641,282.209,24.641z"/>
<g>
</g>
<g>
</g>
<g>
</g>
<g>
</g>
<g>
</g>
<g>
</g>
<g>
</g>
<g>
</g>
<g>
</g>
<g>
</g>
<g>
</g>
<g>
</g>
<g>
</g>
<g>
</g>
<g>
</g>
</svg>
