<?xml version="1.0" encoding="UTF-8" standalone="no"?>
<svg xmlns:rdf="http://www.w3.org/1999/02/22-rdf-syntax-ns#" xmlns="http://www.w3.org/2000/svg" height="156.93mm" width="256.25mm" version="1.1" xmlns:cc="http://creativecommons.org/ns#" xmlns:xlink="http://www.w3.org/1999/xlink" viewBox="0 0 907.96 556.05116" xmlns:dc="http://purl.org/dc/elements/1.1/">
<defs>
<filter id="d" style="color-interpolation-filters:sRGB">
<feGaussianBlur stdDeviation="7.0770398"/>
</filter>
<filter id="e" style="color-interpolation-filters:sRGB">
<feGaussianBlur stdDeviation="6.6823034"/>
</filter>
<filter id="f" style="color-interpolation-filters:sRGB">
<feGaussianBlur stdDeviation="2.2097775"/>
</filter>
<radialGradient id="b" gradientUnits="userSpaceOnUse" cy="-2568.7" cx="943.62" gradientTransform="matrix(1.4482 .40421 -.37085 1.4871 -1437.5 -334.26)" r="222.04">
<stop stop-color="#f00" offset="0"/>
<stop stop-color="#f00" stop-opacity="0" offset="1"/>
</radialGradient>
<linearGradient id="c" y2="-3013" gradientUnits="userSpaceOnUse" x2="974.82" gradientTransform="translate(-80.295,-544.37)" y1="-3473.1" x1="911.43">
<stop stop-color="#fff" stop-opacity="0.752" offset="0"/>
<stop stop-color="#fff" stop-opacity="0" offset="1"/>
</linearGradient>
</defs>
<g transform="translate(-4958.2 -320.42)">
<g transform="matrix(2 0 0 2 -5412.2 -598.45)">
<g id="a" transform="matrix(.028125 0 0 .028125 5186.2 596.14)">
<g transform="matrix(1.37,0,0,1.37,-849.93,5379.1)">
<path d="m999.25-3957.4c-40.047 3.2288-74.729 28.227-100.41 57.531-10.911 10.948-31.6 12.631-41.875 0.062-13.426-12.764-25.494-27.074-41.745-36.24-24.396-16.164-55.501-26.566-84.546-17.955-38.251 12.655-65.014 48.154-75.778 85.969-8.0432 30.754-0.60288 63.942 15.788 90.57 45.564 86.838 133.58 140.14 186.07 222.07 3.0124 4.8374 6.0531 9.6249 8.7722 14.645 35.173-61.602 93.157-104.9 140.69-156.01 39.685-43.469 73.793-94.523 86.371-152.86 5.6962-36.872-13.882-75.115-45.601-94.01-14.142-8.925-30.864-14.414-47.742-13.771z" filter="url(#d)"/>
<path d="m982.09-3938c-43.952 2.1563-82.701 28.117-112.56 58.844-4.1875 3.4573-10.713 2.0516-13.168-2.7463-29.943-30.467-69.475-55.389-113.36-56.035-40.149 1.1828-76.318 28-95.094 62.469-15.626 31.954-9.7803 70.23 5.8215 101.03 28.266 61.857 78.349 109.64 126.41 156.36 34.94 34.762 67.744 73.213 86.296 119.32 25.868-63.866 74.442-114.79 124.48-160.72 42.803-43.89 82.818-94.347 97.679-155 7.5738-37.344-9.0572-77.73-40.158-99.309-18.678-14.838-42.148-24.757-66.342-24.222z" filter="url(#e)" stroke="#000" stroke-width="1px" fill="#500"/>
<path d="m979.83-3940.7c-43.413 2.056-81.942 27.892-111.38 58.188-4.3915 3.789-11.587 3.5668-14.578-1.7735-29.834-30.475-69.213-55.766-113.14-56.352-38.629 0.9384-73.27 26.482-92.531 58.844-16.478 30.672-12.107 68.605 2.6874 99.07 27.048 61.682 76.129 109.65 123.79 155.75 35.805 35.248 70.005 74.105 89.461 121.02 26.023-62.514 73.684-112.6 122.88-157.66 42.501-43.561 82.309-93.356 97.667-153.39 7.865-35.697-6.5943-75.256-35.964-97.019-19.109-16.208-43.476-27.262-68.9-26.69z" filter="url(#f)" fill="#800000"/>
<path d="m999.53-3962c-40.257 3.1249-75.645 27.402-101.69 56.781-7.9443 8.2085-21.741 13.965-32.094 6.6875-12.826-8.1326-20.292-22.386-33.275-30.383-25.881-21.145-59.306-36.573-93.385-31.938-36.019 7.0846-63.787 35.755-79.372 67.634-16.746 32.201-16.953 72.695 0.46183 104.49 27.751 61.594 78.548 107.49 125.2 154.9 30.463 30.898 59.893 63.733 80.154 102.36 31.984-60.362 86.867-103.5 133.85-151.36 40.703-42.165 75.926-91.617 93.373-148.03 7.8242-24.346 7.0801-51.736-4.8787-74.578-15.458-30.314-46.416-53.517-80.781-56.406-2.5157-0.2112-5.0405-0.2211-7.5626-0.1562z" fill="url(#b)"/>
<path d="m979.7-3932.8c-42.409 3.3879-79.212 28.878-108.5 58.156-18.82 8.2054-31.655-11.534-42.78-23.005-33.753-29.361-84.543-45.068-126.83-25.281-44.762 21.859-66.242 81.667-43.632 126.53 26.661 54.749 81.348 103.53 161.87 104.47 82.691-6.3142 167.03-31.502 230.74-86.41 29.804-28.922 35.813-80.074 9.3297-113.16-18.119-25.388-48.707-42.273-80.198-41.304z" fill="url(#c)"/>
</g>
</g>
<use xlink:href="#a" transform="translate(21.433 -.36006)" height="100%" width="100%" y="0" x="0"/>
<use xlink:href="#a" transform="translate(42.908 -.74072)" height="100%" width="100%" y="0" x="0"/>
<use xlink:href="#a" transform="translate(64.376 -1.1524)" height="100%" width="100%" y="0" x="0"/>
<use xlink:href="#a" transform="translate(85.194 3.6195)" height="100%" width="100%" y="0" x="0"/>
<use xlink:href="#a" transform="translate(104.68 12.623)" height="100%" width="100%" y="0" x="0"/>
<use xlink:href="#a" transform="translate(124.65 12.37)" height="100%" width="100%" y="0" x="0"/>
<use xlink:href="#a" transform="translate(129.42 -8.4949)" height="100%" width="100%" y="0" x="0"/>
<use xlink:href="#a" transform="translate(130.64 -29.935)" height="100%" width="100%" y="0" x="0"/>
<use xlink:href="#a" transform="translate(132.95 -51.281)" height="100%" width="100%" y="0" x="0"/>
<use xlink:href="#a" transform="translate(135.77 -72.574)" height="100%" width="100%" y="0" x="0"/>
<use xlink:href="#a" transform="translate(138.74 -93.847)" height="100%" width="100%" y="0" x="0"/>
<use xlink:href="#a" transform="translate(141.78 -115.11)" height="100%" width="100%" y="0" x="0"/>
<use xlink:href="#a" transform="translate(144.83 -133.9)" height="100%" width="100%" y="0" x="0"/>
<use xlink:href="#a" transform="translate(147.49 -112.59)" height="100%" width="100%" y="0" x="0"/>
<use xlink:href="#a" transform="translate(149.46 -91.206)" height="100%" width="100%" y="0" x="0"/>
<use xlink:href="#a" transform="translate(149.87 -69.735)" height="100%" width="100%" y="0" x="0"/>
<use xlink:href="#a" transform="translate(149.63 -48.258)" height="100%" width="100%" y="0" x="0"/>
<use xlink:href="#a" transform="translate(149.4 -26.781)" height="100%" width="100%" y="0" x="0"/>
<use xlink:href="#a" transform="translate(149.28 -5.3025)" height="100%" width="100%" y="0" x="0"/>
<use xlink:href="#a" transform="translate(149.08 16.175)" height="100%" width="100%" y="0" x="0"/>
<use xlink:href="#a" transform="translate(148.95 37.654)" height="100%" width="100%" y="0" x="0"/>
<use xlink:href="#a" transform="translate(149.25 59.129)" height="100%" width="100%" y="0" x="0"/>
<use xlink:href="#a" transform="translate(150.26 80.583)" height="100%" width="100%" y="0" x="0"/>
<use xlink:href="#a" transform="translate(152.69 101.92)" height="100%" width="100%" y="0" x="0"/>
<use xlink:href="#a" transform="translate(155.91 123.15)" height="100%" width="100%" y="0" x="0"/>
<use xlink:href="#a" transform="translate(160.04 103.42)" height="100%" width="100%" y="0" x="0"/>
<use xlink:href="#a" transform="translate(163.88 82.29)" height="100%" width="100%" y="0" x="0"/>
<use xlink:href="#a" transform="translate(166.07 60.929)" height="100%" width="100%" y="0" x="0"/>
<use xlink:href="#a" transform="translate(169.01 39.67)" height="100%" width="100%" y="0" x="0"/>
<use xlink:href="#a" transform="translate(177.68 20.339)" height="100%" width="100%" y="0" x="0"/>
<use xlink:href="#a" transform="translate(195.45 8.6314)" height="100%" width="100%" y="0" x="0"/>
<use xlink:href="#a" transform="translate(216.61 5.1862)" height="100%" width="100%" y="0" x="0"/>
<use xlink:href="#a" transform="translate(235.8 -3.9212)" height="100%" width="100%" y="0" x="0"/>
<use xlink:href="#a" transform="translate(249.48 -20.427)" height="100%" width="100%" y="0" x="0"/>
<use xlink:href="#a" transform="translate(261.96 -37.896)" height="100%" width="100%" y="0" x="0"/>
<use xlink:href="#a" transform="translate(273 -56.266)" height="100%" width="100%" y="0" x="0"/>
<use xlink:href="#a" transform="translate(290.27 -58.137)" height="100%" width="100%" y="0" x="0"/>
<use xlink:href="#a" transform="translate(302.45 -40.533)" height="100%" width="100%" y="0" x="0"/>
<use xlink:href="#a" transform="translate(312.82 -21.734)" height="100%" width="100%" y="0" x="0"/>
<use xlink:href="#a" transform="translate(327.06 -5.8802)" height="100%" width="100%" y="0" x="0"/>
<use xlink:href="#a" transform="translate(347.2 .70562)" height="100%" width="100%" y="0" x="0"/>
<use xlink:href="#a" transform="translate(368.63 2.1558)" height="100%" width="100%" y="0" x="0"/>
<use xlink:href="#a" transform="translate(390.1 2.1815)" height="100%" width="100%" y="0" x="0"/>
<use xlink:href="#a" transform="translate(411.51 .57059)" height="100%" width="100%" y="0" x="0"/>
<use xlink:href="#a" transform="translate(432.98 -.014053)" height="100%" width="100%" y="0" x="0"/>
</g>
</g>
</svg>
