<svg xmlns="http://www.w3.org/2000/svg" viewBox="0 0 48 48"><title>08-health</title><g id="_08-health" data-name="08-health"><path d="M26,20H22a1,1,0,0,1-1-1V17H19a1,1,0,0,1-1-1V12a1,1,0,0,1,1-1h2V9a1,1,0,0,1,1-1h4a1,1,0,0,1,1,1v2h2a1,1,0,0,1,1,1v4a1,1,0,0,1-1,1H27v2A1,1,0,0,1,26,20Zm-3-2h2V16a1,1,0,0,1,1-1h2V13H26a1,1,0,0,1-1-1V10H23v2a1,1,0,0,1-1,1H20v2h2a1,1,0,0,1,1,1Z"/><path d="M41,48H7a1,1,0,0,1-1-1V43H8v3H40V19h2V47A1,1,0,0,1,41,48Z"/><path d="M15,10H7V8h7V1h2V9A1,1,0,0,1,15,10Z"/><path d="M8,29H6V9a1,1,0,0,1,.293-.707l8-8A1,1,0,0,1,15,0H41a1,1,0,0,1,1,1V5H40V2H15.414L8,9.414Z"/><rect x="16" y="23" width="20" height="2"/><rect x="14" y="27" width="22" height="2"/><rect x="18" y="31" width="18" height="2"/><rect x="18" y="35" width="18" height="2"/><rect x="18" y="39" width="14" height="2"/><rect x="34" y="39" width="2" height="2"/><rect x="36" y="11" width="8" height="2"/><path d="M37,20a1,1,0,0,1-1-1V17H35a3,3,0,0,1-3-3V10a3,3,0,0,1,3-3H45a3,3,0,0,1,3,3v4a3,3,0,0,1-3,3H40.414l-2.707,2.707A1,1,0,0,1,37,20ZM35,9a1,1,0,0,0-1,1v4a1,1,0,0,0,1,1h2a1,1,0,0,1,1,1v.586l1.293-1.293A1,1,0,0,1,40,15h5a1,1,0,0,0,1-1V10a1,1,0,0,0-1-1Z"/><rect x="4" y="35" width="8" height="2"/><path d="M13,41H3a3,3,0,0,1-3-3V34a3,3,0,0,1,3-3H7.586l2.707-2.707A1,1,0,0,1,12,29v2h1a3,3,0,0,1,3,3v4A3,3,0,0,1,13,41ZM3,33a1,1,0,0,0-1,1v4a1,1,0,0,0,1,1H13a1,1,0,0,0,1-1V34a1,1,0,0,0-1-1H11a1,1,0,0,1-1-1v-.586L8.707,32.707A1,1,0,0,1,8,33Z"/></g></svg>