<?xml version="1.0" encoding="utf-8"?>
<!-- Generator: Adobe Illustrator 16.0.0, SVG Export Plug-In . SVG Version: 6.00 Build 0)  -->
<!DOCTYPE svg PUBLIC "-//W3C//DTD SVG 1.1//EN" "http://www.w3.org/Graphics/SVG/1.1/DTD/svg11.dtd">
<svg version="1.1" id="Layer_1" xmlns="http://www.w3.org/2000/svg" xmlns:xlink="http://www.w3.org/1999/xlink" x="0px" y="0px"
	 width="128px" height="128px" viewBox="0 0 128 128" enable-background="new 0 0 128 128" xml:space="preserve">
<g>
	<g>
		<path fill="#282D33" d="M75.069,128L18.395,70.641l-3.467-33.336l1.611-1.629l2.209,2.184l0.261-0.027l0.033,0.318l0.345,0.341
			l-0.28,0.283l3.126,30.052l52.837,53.476l46.772-47.335L68.976,21.473l-29.651-3.16L27.208,30.574l-2.848-2.815l13.473-13.633
			l32.987,3.516l56.652,57.325L75.069,128z M38.685,46.456c-2.205,0-4.276-0.867-5.832-2.441c-3.196-3.237-3.195-8.501,0.001-11.735
			c1.552-1.572,3.62-2.439,5.821-2.441c0.002,0,0.004,0,0.006,0c2.202,0,4.273,0.866,5.831,2.44c3.2,3.238,3.199,8.502,0.001,11.735
			C42.958,45.589,40.889,46.455,38.685,46.456z M38.682,33.843c-0.001,0-0.002,0-0.003,0c-1.123,0.001-2.18,0.445-2.975,1.251
			c-1.664,1.684-1.664,4.422-0.001,6.106c0.797,0.807,1.855,1.251,2.981,1.251c1.125,0,2.185-0.445,2.982-1.252l0.001-0.001
			c1.663-1.682,1.663-4.42-0.001-6.104C40.868,34.288,39.808,33.843,38.682,33.843z"/>
	</g>
	<g>
		<path fill="#282D33" d="M35.172,41.679c-5.657,0.001-14.289-5.034-21.989-12.826C4.06,19.619-2.86,6.999,2.284,1.796
			C3.092,0.978,4.583,0,7.095,0c0,0,0.001,0,0.002,0c5.656,0,14.286,5.033,21.986,12.824c1.145,1.156,2.249,2.356,3.281,3.564
			l-3.044,2.603c-0.97-1.135-2.008-2.263-3.084-3.352C18.334,7.646,10.776,4.005,7.097,4.005c0,0,0,0-0.001,0
			c-0.906,0-1.566,0.204-1.963,0.605C3.037,6.73,6.242,16.13,16.031,26.037c7.902,7.996,15.461,11.638,19.14,11.637
			c0.908,0,1.569-0.203,1.966-0.606c0.683-0.688,0.795-2.227,0.311-4.221L41.34,31.9c1.067,4.392-0.148,6.766-1.355,7.984
			C39.177,40.702,37.684,41.679,35.172,41.679z"/>
	</g>
	<g>
		<g>
			<g>
				<g>
					
						<rect x="68.997" y="56.319" transform="matrix(0.7111 0.7031 -0.7031 0.7111 70.3308 -29.4508)" fill="#282D33" width="4.006" height="29.06"/>
				</g>
				<g>
					
						<rect x="56.469" y="68.841" transform="matrix(0.7029 0.7113 -0.7113 0.7029 71.4852 -29.4512)" fill="#282D33" width="29.054" height="4.006"/>
				</g>
			</g>
		</g>
	</g>
</g>
</svg>
