<?xml version="1.0" encoding="utf-8"?>
<!-- Generator: Adobe Illustrator 16.0.0, SVG Export Plug-In . SVG Version: 6.00 Build 0)  -->
<!DOCTYPE svg PUBLIC "-//W3C//DTD SVG 1.1//EN" "http://www.w3.org/Graphics/SVG/1.1/DTD/svg11.dtd">
<svg version="1.1" id="Layer_1" xmlns="http://www.w3.org/2000/svg" xmlns:xlink="http://www.w3.org/1999/xlink" x="0px" y="0px"
	 width="128px" height="128px" viewBox="0 0 128 128" enable-background="new 0 0 128 128" xml:space="preserve">
<g>
	<g>
		<path fill="#282D33" d="M37.832,68.326H18.73c-8.495,0-15.406-6.972-15.406-15.542c0-8.569,6.911-15.54,15.406-15.54h7.081v4
			H18.73c-6.289,0-11.406,5.177-11.406,11.54c0,6.364,5.117,11.542,11.406,11.542h19.102V68.326z"/>
	</g>
	<g>
		<path fill="#282D33" d="M62.009,77.49c-20.957,0-38.007-17.213-38.007-38.371S41.052,0.748,62.009,0.748
			s38.007,17.213,38.007,38.371S82.966,77.49,62.009,77.49z M62.009,4.748c-18.751,0-34.007,15.419-34.007,34.371
			S43.257,73.49,62.009,73.49c18.751,0,34.007-15.419,34.007-34.371S80.76,4.748,62.009,4.748z"/>
	</g>
	<g>
		<g>
			<g>
				<path fill="#282D33" d="M99.545,127.252H3.598c-1.984,0-3.598-1.622-3.598-3.616V83.759c0-1.992,1.614-3.613,3.598-3.613h95.947
					c1.984,0,3.6,1.621,3.6,3.613v39.877C103.145,125.63,101.529,127.252,99.545,127.252z M4,123.252h95.145V84.146H4V123.252z"/>
			</g>
			<g>
				<g>
					<g>
						<rect x="10.073" y="91.138" fill="#282D33" width="7.52" height="4"/>
					</g>
					<g>
						<rect x="22.653" y="91.138" fill="#282D33" width="7.52" height="4"/>
					</g>
					<g>
						<rect x="35.234" y="91.138" fill="#282D33" width="7.517" height="4"/>
					</g>
					<g>
						<rect x="47.813" y="91.138" fill="#282D33" width="7.519" height="4"/>
					</g>
					<g>
						<rect x="60.395" y="91.138" fill="#282D33" width="7.517" height="4"/>
					</g>
					<g>
						<rect x="72.977" y="91.138" fill="#282D33" width="7.516" height="4"/>
					</g>
					<g>
						<rect x="85.555" y="91.138" fill="#282D33" width="7.516" height="4"/>
					</g>
				</g>
				<g>
					<g>
						<rect x="10.073" y="101.699" fill="#282D33" width="7.52" height="4"/>
					</g>
					<g>
						<rect x="22.653" y="101.699" fill="#282D33" width="7.52" height="4"/>
					</g>
					<g>
						<rect x="35.234" y="101.699" fill="#282D33" width="7.517" height="4"/>
					</g>
					<g>
						<rect x="47.813" y="101.699" fill="#282D33" width="7.519" height="4"/>
					</g>
					<g>
						<rect x="60.395" y="101.699" fill="#282D33" width="7.517" height="4"/>
					</g>
					<g>
						<rect x="72.977" y="101.699" fill="#282D33" width="7.516" height="4"/>
					</g>
					<g>
						<rect x="85.555" y="101.699" fill="#282D33" width="7.516" height="4"/>
					</g>
				</g>
				<g>
					<g>
						<rect x="10.073" y="112.257" fill="#282D33" width="7.52" height="4"/>
					</g>
					<g>
						<rect x="22.653" y="112.257" fill="#282D33" width="7.52" height="4"/>
					</g>
					<g>
						<rect x="35.234" y="112.257" fill="#282D33" width="45.375" height="4"/>
					</g>
					<g>
						<rect x="85.555" y="112.257" fill="#282D33" width="7.516" height="4"/>
					</g>
				</g>
			</g>
		</g>
	</g>
	<g>
		<path fill="#282D33" d="M113.102,94.381h-10.963v-4h10.963c6.01,0,10.898-4.947,10.898-11.028c0-6.08-4.889-11.026-10.898-11.026
			H86.416v-4h26.686c8.215,0,14.898,6.741,14.898,15.026C128,87.64,121.316,94.381,113.102,94.381z"/>
	</g>
	<g>
		<path fill="#282D33" d="M68.79,56.246H55.229V45.948H45.033V32.292h10.196V21.995H68.79v10.297h10.194v13.656H68.79V56.246z
			 M59.229,52.246h5.561V41.948h10.194v-5.656H64.79V25.995h-5.561v10.297H49.033v5.656h10.196V52.246z"/>
	</g>
</g>
</svg>
